HIERARCHY
ROOT Hips
{
	OFFSET 0.000000 0.000000 0.000000
	CHANNELS 6 Xposition Yposition Zposition Xrotation Yrotation Zrotation
	JOINT LeftUpLeg_virtual
	{
		OFFSET 0.000000 0.000000 0.000000
		CHANNELS 3 Xrotation Yrotation Zrotation
		JOINT LeftUpLeg
		{
			OFFSET 13.026900 -6.336304 -1.092800
			CHANNELS 3 Xrotation Yrotation Zrotation
			JOINT LeftLeg
			{
				OFFSET 0.524474 -46.096886 9.782700
				CHANNELS 3 Xrotation Yrotation Zrotation
				JOINT LeftFoot
				{
					OFFSET -0.524474 -53.427422 -12.948200
					CHANNELS 3 Xrotation Yrotation Zrotation
					JOINT LeftToeBase
					{
						OFFSET 0.192200 -14.009700 16.364100
						CHANNELS 3 Xrotation Yrotation Zrotation
						JOINT LeftToe_End
						{
							OFFSET -1.784700 -0.561700 9.474800
							CHANNELS 3 Xrotation Yrotation Zrotation
							End Site
							{
								OFFSET 0 0 0
							}
						}
					}
				}
			}
		}
	}
	JOINT RightUpLeg_virtual
	{
		OFFSET 0.000000 0.000000 0.000000
		CHANNELS 3 Xrotation Yrotation Zrotation
		JOINT RightUpLeg
		{
			OFFSET -12.883000 -6.336304 -1.092800
			CHANNELS 3 Xrotation Yrotation Zrotation
			JOINT RightLeg
			{
				OFFSET -0.524587 -46.096825 9.782800
				CHANNELS 3 Xrotation Yrotation Zrotation
				JOINT RightFoot
				{
					OFFSET 0.524587 -53.427383 -12.948300
					CHANNELS 3 Xrotation Yrotation Zrotation
					JOINT RightToeBase
					{
						OFFSET -0.192200 -14.009700 16.364100
						CHANNELS 3 Xrotation Yrotation Zrotation
						JOINT RightToe_End
						{
							OFFSET 1.784700 -0.561700 9.474800
							CHANNELS 3 Xrotation Yrotation Zrotation
							End Site
							{
								OFFSET 0 0 0
							}
						}
					}
				}
			}
		}
	}
	JOINT Spine_virtual
	{
		OFFSET 0.000000 0.000000 0.000000
		CHANNELS 3 Xrotation Yrotation Zrotation
		JOINT Spine
		{
			OFFSET 0.072000 7.257294 -0.789700
			CHANNELS 3 Xrotation Yrotation Zrotation
			JOINT Spine1
			{
				OFFSET 0.000000 12.508769 -0.658067
				CHANNELS 3 Xrotation Yrotation Zrotation
				JOINT Spine1_split
				{
					OFFSET 0.000000 12.508769 -0.658067
					CHANNELS 3 Xrotation Yrotation Zrotation
					JOINT Spine2
					{
						OFFSET 0.000000 12.508769 -0.658067
						CHANNELS 3 Xrotation Yrotation Zrotation
						JOINT Neck_virtual
						{
							OFFSET 0.000000 0.000000 0.000000
							CHANNELS 3 Xrotation Yrotation Zrotation
							JOINT Neck
							{
								OFFSET 0.000000 14.033295 7.520400
								CHANNELS 3 Xrotation Yrotation Zrotation
								JOINT Head
								{
									OFFSET 0.000000 8.198502 5.703100
									CHANNELS 3 Xrotation Yrotation Zrotation
									JOINT HeadTop_End
									{
										OFFSET 0.000000 17.760803 13.332701
										CHANNELS 3 Xrotation Yrotation Zrotation
										End Site
										{
											OFFSET 0 0 0
										}
									}
								}
							}
						}
						JOINT LeftShoulder_virtual
						{
							OFFSET 0.000000 0.000000 0.000000
							CHANNELS 3 Xrotation Yrotation Zrotation
							JOINT LeftShoulder
							{
								OFFSET 6.292450 5.785301 -0.669000
								CHANNELS 3 Xrotation Yrotation Zrotation
								JOINT LeftShoulder_split
								{
									OFFSET 6.292450 5.785301 -0.669000
									CHANNELS 3 Xrotation Yrotation Zrotation
									JOINT LeftArm
									{
										OFFSET 13.907140 -6.093903 1.965100
										CHANNELS 3 Xrotation Yrotation Zrotation
										JOINT LeftForeArm
										{
											OFFSET 34.140198 0.000000 0.000000
											CHANNELS 3 Xrotation Yrotation Zrotation
											JOINT LeftHand
											{
												OFFSET 40.960209 0.000000 0.000000
												CHANNELS 3 Xrotation Yrotation Zrotation
												End Site
												{
													OFFSET 0 0 0
												}
											}
										}
									}
								}
							}
						}
						JOINT RightShoulder_virtual
						{
							OFFSET 0.000000 0.000000 0.000000
							CHANNELS 3 Xrotation Yrotation Zrotation
							JOINT RightShoulder
							{
								OFFSET -6.292450 5.785301 -0.669000
								CHANNELS 3 Xrotation Yrotation Zrotation
								JOINT RightShoulder_split
								{
									OFFSET -6.292450 5.785301 -0.669000
									CHANNELS 3 Xrotation Yrotation Zrotation
									JOINT RightArm
									{
										OFFSET -13.907140 -6.093903 1.965100
										CHANNELS 3 Xrotation Yrotation Zrotation
										JOINT RightForeArm
										{
											OFFSET -34.140198 0.000000 0.000000
											CHANNELS 3 Xrotation Yrotation Zrotation
											JOINT RightHand
											{
												OFFSET -40.960209 0.000000 0.000000
												CHANNELS 3 Xrotation Yrotation Zrotation
												End Site
												{
													OFFSET 0 0 0
												}
											}
										}
									}
								}
							}
						}
					}
				}
			}
		}
	}
}
MOTION
Frames: 8
Frame Time: 0.03333333
75.024567 116.603165 185.493698 0.000000 0.000000 0.000000 -6.918146 38.778221 9.289862 -24.638161 6.987990 -9.312555 25.986717 -7.982721 0.747967 26.025517 0.799590 12.393105 -26.202694 -0.000484 3.377176 0.000000 0.000000 0.000000 -6.692326 39.949292 8.839419 -17.952681 13.565820 1.595762 48.642425 -5.764850 -1.827081 19.675292 -5.081637 -2.636173 -42.003888 -0.593882 4.817607 0.000000 0.000000 0.000000 -6.119671 38.776090 8.517820 3.521455 -2.225640 -5.104512 -0.988516 -1.199417 1.061005 0.588602 0.663704 0.129098 0.000000 0.000000 0.000000 -1.933665 -1.090136 1.233740 -9.047398 3.271731 2.250643 7.356684 5.849209 -2.159601 0.000000 0.000000 0.000000 -2.347395 -0.902833 1.437624 1.177597 8.965381 -3.986969 1.080920 2.106608 -1.116602 8.413154 -9.402785 -67.163005 11.109143 -23.772520 4.166885 0.000000 0.000000 0.000000 -2.006427 -1.153558 1.124505 1.455621 1.942043 4.435934 0.066942 1.535944 -2.468951 0.237260 7.346652 76.722204 10.979838 15.834214 -2.498563 0.000000 0.000000 0.000000 
77.958672 117.782059 189.164215 0.000000 0.000000 0.000000 -6.049591 40.642638 7.433073 -20.628408 5.684061 -9.027777 24.564432 -7.944488 1.055224 21.216127 3.670186 13.135152 -23.718744 0.741485 2.186491 0.000000 0.000000 0.000000 -6.018192 41.393030 7.050088 -24.936403 14.053681 2.481670 44.900045 -5.339316 -1.955063 21.048818 -3.908204 -2.944081 -34.496475 -0.514004 5.184712 0.000000 0.000000 0.000000 -5.639791 39.940610 7.058411 4.071273 -2.723600 -4.623244 -1.185010 -1.534154 1.242887 0.590884 0.814040 -0.002088 0.000000 0.000000 0.000000 -1.970997 -1.414873 1.476001 -9.087946 3.164555 2.712233 7.527295 5.902277 -2.820032 0.000000 0.000000 0.000000 -2.291387 -1.267769 1.677276 1.031870 8.011526 -3.626786 1.015118 2.566437 -1.102017 6.829554 -11.680128 -66.918314 11.356871 -24.293299 4.458310 0.000000 0.000000 0.000000 -2.127714 -1.490075 1.345086 1.127369 0.787131 5.249663 0.678965 1.769398 -2.652961 0.419686 6.376113 75.675914 10.808658 15.944440 -2.499212 0.000000 0.000000 0.000000 
81.169685 118.741562 192.821091 0.000000 0.000000 0.000000 -5.237739 42.958362 5.933073 -15.839948 5.656474 -8.638804 22.379912 -8.543153 1.161679 15.485629 4.618828 14.485674 -22.621045 1.250500 1.337158 0.000000 0.000000 0.000000 -5.140323 43.209132 5.446082 -30.484620 13.129854 2.366762 39.033807 -3.917943 -2.245700 24.798773 -1.209622 -1.315449 -30.711546 -0.274841 4.316406 0.000000 0.000000 0.000000 -5.142016 41.530081 5.866970 4.432538 -3.086996 -4.494156 -1.335137 -1.847510 1.409521 0.827228 0.937230 -0.208595 0.000000 0.000000 0.000000 -2.033310 -1.745441 1.694216 -9.140288 2.939118 3.397387 7.337506 5.981097 -3.485348 0.000000 0.000000 0.000000 -2.292491 -1.631377 1.863321 0.894604 6.986520 -3.234933 0.886637 2.817328 -1.136130 4.940056 -13.845800 -66.966385 11.539707 -24.314702 4.803471 0.000000 0.000000 0.000000 -2.194376 -1.825978 1.530303 0.807554 -0.379518 6.143599 1.218741 2.070713 -2.697938 0.787030 5.263891 74.713199 10.734532 16.200633 -2.617510 0.000000 0.000000 0.000000 
84.532585 119.201126 196.328873 0.000000 0.000000 0.000000 -4.747369 45.909670 5.264798 -11.552067 6.859596 -7.916590 20.347195 -10.627880 0.920942 12.146183 2.745012 15.415609 -24.038144 1.233116 1.436647 0.000000 0.000000 0.000000 -4.282614 45.831112 4.459463 -34.121709 11.146572 1.336577 31.582122 -2.147087 -2.384662 28.671498 1.982128 0.560131 -29.045854 -0.009738 2.700054 0.000000 0.000000 0.000000 -4.903978 43.750247 5.418012 4.651393 -3.420234 -4.885016 -1.396539 -2.156298 1.592837 0.828194 0.854191 -0.308952 0.000000 0.000000 0.000000 -2.147350 -2.059931 1.915023 -9.249502 2.602284 4.257803 6.845557 6.130353 -4.029587 0.000000 0.000000 0.000000 -2.353739 -1.968701 2.033666 0.751714 5.990407 -2.748066 0.767481 2.923945 -1.211438 2.864388 -15.629647 -67.295784 11.606355 -24.219706 5.169945 0.000000 0.000000 0.000000 -2.241036 -2.146097 1.715864 0.533434 -1.511159 7.020161 1.720336 2.460259 -2.598547 1.476148 4.225079 73.865368 10.807461 16.568941 -2.856501 0.000000 0.000000 0.000000 
87.783165 119.192307 199.616852 0.000000 0.000000 0.000000 -4.539497 49.195523 5.434170 -8.431089 8.816370 -7.041841 19.193487 -13.841496 0.348724 11.892929 -0.808524 16.678928 -26.227904 0.805406 1.985272 0.000000 0.000000 0.000000 -3.407848 49.183557 4.163262 -35.928246 8.293164 -0.289138 24.163283 -0.842282 -2.286897 31.395064 4.452556 1.210601 -27.527865 0.293128 0.977579 0.000000 0.000000 0.000000 -4.986483 46.636047 5.809382 4.740619 -3.844197 -5.830019 -1.341833 -2.451330 1.839007 0.859101 0.786139 -0.371411 0.000000 0.000000 0.000000 -2.292701 -2.330730 2.157959 -9.503062 2.149368 5.197035 6.222029 6.301973 -4.326346 0.000000 0.000000 0.000000 -2.433238 -2.253293 2.250067 0.600033 5.048910 -2.113092 0.768813 2.929634 -1.294346 0.765888 -16.845910 -67.828983 11.548356 -24.384084 5.565983 0.000000 0.000000 0.000000 -2.254513 -2.434063 1.944427 0.315054 -2.514786 7.868081 2.177668 2.971363 -2.332057 2.357145 3.365584 73.138909 11.000207 16.841199 -3.148728 0.000000 0.000000 0.000000 
90.922844 118.729652 203.060944 0.000000 0.000000 0.000000 -4.368257 52.285310 6.107626 -5.683346 11.172795 -6.294193 18.682290 -16.950928 -0.328445 12.547488 -4.293433 19.381321 -27.053061 0.337088 2.429251 0.000000 0.000000 0.000000 -2.783352 53.000082 4.528782 -36.956934 4.960346 -2.038933 18.172219 -0.459629 -1.987834 32.964409 5.310138 0.506178 -25.468997 0.536508 -0.333403 0.000000 0.000000 0.000000 -5.328688 49.835826 6.863802 4.673015 -4.339899 -7.193130 -1.151391 -2.719474 2.149650 0.940227 0.742755 -0.342887 0.000000 0.000000 0.000000 -2.382140 -2.542258 2.443044 -9.920314 1.623648 6.133202 5.630673 6.421801 -4.277827 0.000000 0.000000 0.000000 -2.491847 -2.472139 2.544190 0.431511 4.188422 -1.332249 0.762715 2.856267 -1.413048 -1.206270 -17.377306 -68.501757 11.356595 -24.935721 5.952755 0.000000 0.000000 0.000000 -2.205889 -2.663097 2.244336 0.142748 -3.303653 8.661276 2.450380 3.304956 -1.853906 3.200790 2.690825 72.534587 11.226867 16.710229 -3.420258 0.000000 0.000000 0.000000 
93.816032 117.843674 206.420929 0.000000 0.000000 0.000000 -4.310191 55.139239 7.010738 -3.011224 12.884152 -5.630722 18.813170 -19.580779 -0.731043 12.641502 -6.621794 21.607838 -26.221115 0.291080 2.397277 0.000000 0.000000 0.000000 -2.555773 56.766020 5.323803 -38.044618 1.961407 -3.283684 14.518277 -0.523722 -1.702834 33.741517 4.933347 -0.804712 -23.251175 0.706658 -1.107173 0.000000 0.000000 0.000000 -6.126514 52.937723 8.322045 4.512073 -4.837049 -8.610890 -0.840031 -2.917297 2.518107 0.934187 0.617165 -0.256434 0.000000 0.000000 0.000000 -2.305748 -2.681115 2.755136 -10.365326 1.107082 6.925638 5.308087 6.350092 -3.888877 0.000000 0.000000 0.000000 -2.473054 -2.611817 2.889710 0.244772 3.503699 -0.461523 0.823050 2.726159 -1.574782 -2.840100 -17.323843 -69.235715 11.114286 -25.850644 6.284484 0.000000 0.000000 0.000000 -2.079249 -2.815272 2.603992 -0.027475 -3.747113 9.386170 2.400146 3.321128 -1.295124 3.753493 2.151522 71.993151 11.376131 15.937070 -3.588797 0.000000 0.000000 0.000000 
96.537018 116.774269 209.965958 0.000000 0.000000 0.000000 -4.401441 57.666864 7.709276 0.206180 13.410733 -5.281914 19.322532 -21.063272 -0.775568 10.056265 -7.241173 23.354102 -24.817750 0.653904 1.747195 0.000000 0.000000 0.000000 -2.564892 60.048223 5.960729 -39.267673 -0.279636 -3.706069 13.841693 -0.783550 -1.507083 34.448291 3.962942 -1.962186 -22.264643 0.847597 -1.384850 0.000000 0.000000 0.000000 -6.983488 55.448439 9.508529 4.169779 -5.180109 -9.708484 -0.460034 -3.012417 2.878965 1.086070 0.762028 -0.207495 0.000000 0.000000 0.000000 -2.014087 -2.742786 3.047008 -10.750804 0.657318 7.450990 5.359984 6.081163 -3.270567 0.000000 0.000000 0.000000 -2.358719 -2.665423 3.242825 0.045472 3.005539 0.364511 0.919945 2.346686 -1.790017 -3.867250 -16.892149 -69.948848 10.878196 -26.796560 6.489193 0.000000 0.000000 0.000000 -1.844587 -2.883217 2.970288 -0.194448 -3.783612 10.068269 1.976924 3.078946 -0.802400 3.938886 1.700412 71.602512 11.418010 14.571724 -3.645470 0.000000 0.000000 0.000000 
